<?xml version="1.0" encoding="UTF-8" standalone="no"?><svg xmlns="http://www.w3.org/2000/svg" xmlns:xlink="http://www.w3.org/1999/xlink" contentStyleType="text/css" height="1306px" preserveAspectRatio="none" style="width:613px;height:1306px;background:#FFFFFF;" version="1.1" viewBox="0 0 613 1306" width="613px" zoomAndPan="magnify"><defs/><g><!--cluster PostgrestPhp\\Client--><g id="cluster_PostgrestPhp\\Client"><path d="M333.5,113 L491.5,113 A3.75,3.75 0 0 1 494,115.5 L501,135.2969 L539.5,135.2969 A2.5,2.5 0 0 1 542,137.7969 L542,260.5 A2.5,2.5 0 0 1 539.5,263 L333.5,263 A2.5,2.5 0 0 1 331,260.5 L331,115.5 A2.5,2.5 0 0 1 333.5,113 " fill="none" style="stroke:#000000;stroke-width:1.5;"/><line style="stroke:#000000;stroke-width:1.5;" x1="331" x2="501" y1="135.2969" y2="135.2969"/><text fill="#000000" font-family="sans-serif" font-size="14" font-weight="bold" lengthAdjust="spacing" textLength="157" x="335" y="127.9951">PostgrestPhp\Client</text></g><!--cluster PostgrestPhp\\Client\\Base--><g id="cluster_PostgrestPhp\\Client\\Base"><path d="M10.5,113 L211.5,113 A3.75,3.75 0 0 1 214,115.5 L221,135.2969 L235.5,135.2969 A2.5,2.5 0 0 1 238,137.7969 L238,327.5 A2.5,2.5 0 0 1 235.5,330 L10.5,330 A2.5,2.5 0 0 1 8,327.5 L8,115.5 A2.5,2.5 0 0 1 10.5,113 " fill="none" style="stroke:#000000;stroke-width:1.5;"/><line style="stroke:#000000;stroke-width:1.5;" x1="8" x2="221" y1="135.2969" y2="135.2969"/><text fill="#000000" font-family="sans-serif" font-size="14" font-weight="bold" lengthAdjust="spacing" textLength="200" x="12" y="127.9951">PostgrestPhp\Client\Base</text></g><!--cluster PostgrestPhp\\Client\\Exceptions--><g id="cluster_PostgrestPhp\\Client\\Exceptions"><path d="M307,287 L556,287 A3.75,3.75 0 0 1 558.5,289.5 L565.5,309.2969 L566,309.2969 A2.5,2.5 0 0 1 568.5,311.7969 L568.5,367.5 A2.5,2.5 0 0 1 566,370 L307,370 A2.5,2.5 0 0 1 304.5,367.5 L304.5,289.5 A2.5,2.5 0 0 1 307,287 " fill="none" style="stroke:#000000;stroke-width:1.5;"/><line style="stroke:#000000;stroke-width:1.5;" x1="304.5" x2="565.5" y1="309.2969" y2="309.2969"/><text fill="#000000" font-family="sans-serif" font-size="14" font-weight="bold" lengthAdjust="spacing" textLength="248" x="308.5" y="301.9951">PostgrestPhp\Client\Exceptions</text></g><!--cluster PostgrestPhp\\RequestBuilder--><g id="cluster_PostgrestPhp\\RequestBuilder"><path d="M315,1082 L548,1082 A3.75,3.75 0 0 1 550.5,1084.5 L557.5,1104.2969 L558,1104.2969 A2.5,2.5 0 0 1 560.5,1106.7969 L560.5,1296.5 A2.5,2.5 0 0 1 558,1299 L315,1299 A2.5,2.5 0 0 1 312.5,1296.5 L312.5,1084.5 A2.5,2.5 0 0 1 315,1082 " fill="none" style="stroke:#000000;stroke-width:1.5;"/><line style="stroke:#000000;stroke-width:1.5;" x1="312.5" x2="557.5" y1="1104.2969" y2="1104.2969"/><text fill="#000000" font-family="sans-serif" font-size="14" font-weight="bold" lengthAdjust="spacing" textLength="232" x="316.5" y="1096.9951">PostgrestPhp\RequestBuilder</text></g><!--cluster PostgrestPhp\\RequestBuilder\\Traits--><g id="cluster_PostgrestPhp\\RequestBuilder\\Traits"><path d="M8.5,742 L291.5,742 A3.75,3.75 0 0 1 294,744.5 L301,764.2969 L557,764.2969 A2.5,2.5 0 0 1 559.5,766.7969 L559.5,1055.5 A2.5,2.5 0 0 1 557,1058 L8.5,1058 A2.5,2.5 0 0 1 6,1055.5 L6,744.5 A2.5,2.5 0 0 1 8.5,742 " fill="none" style="stroke:#000000;stroke-width:1.5;"/><line style="stroke:#000000;stroke-width:1.5;" x1="6" x2="301" y1="764.2969" y2="764.2969"/><text fill="#000000" font-family="sans-serif" font-size="14" font-weight="bold" lengthAdjust="spacing" textLength="282" x="10" y="756.9951">PostgrestPhp\RequestBuilder\Traits</text></g><!--cluster PostgrestPhp\\RequestBuilder\\Exceptions--><g id="cluster_PostgrestPhp\\RequestBuilder\\Exceptions"><path d="M269.5,394 L593.5,394 A3.75,3.75 0 0 1 596,396.5 L603,416.2969 L603.5,416.2969 A2.5,2.5 0 0 1 606,418.7969 L606,608.5 A2.5,2.5 0 0 1 603.5,611 L269.5,611 A2.5,2.5 0 0 1 267,608.5 L267,396.5 A2.5,2.5 0 0 1 269.5,394 " fill="none" style="stroke:#000000;stroke-width:1.5;"/><line style="stroke:#000000;stroke-width:1.5;" x1="267" x2="603" y1="416.2969" y2="416.2969"/><text fill="#000000" font-family="sans-serif" font-size="14" font-weight="bold" lengthAdjust="spacing" textLength="323" x="271" y="408.9951">PostgrestPhp\RequestBuilder\Exceptions</text></g><!--cluster PostgrestPhp\\Response--><g id="cluster_PostgrestPhp\\Response"><path d="M22.5,6 L213.5,6 A3.75,3.75 0 0 1 216,8.5 L223,28.2969 L223.5,28.2969 A2.5,2.5 0 0 1 226,30.7969 L226,86.5 A2.5,2.5 0 0 1 223.5,89 L22.5,89 A2.5,2.5 0 0 1 20,86.5 L20,8.5 A2.5,2.5 0 0 1 22.5,6 " fill="none" style="stroke:#000000;stroke-width:1.5;"/><line style="stroke:#000000;stroke-width:1.5;" x1="20" x2="223" y1="28.2969" y2="28.2969"/><text fill="#000000" font-family="sans-serif" font-size="14" font-weight="bold" lengthAdjust="spacing" textLength="190" x="24" y="20.9951">PostgrestPhp\Response</text></g><!--cluster PostgrestPhp\\Response\\Exceptions--><g id="cluster_PostgrestPhp\\Response\\Exceptions"><path d="M291,635 L573,635 A3.75,3.75 0 0 1 575.5,637.5 L582.5,657.2969 L583,657.2969 A2.5,2.5 0 0 1 585.5,659.7969 L585.5,715.5 A2.5,2.5 0 0 1 583,718 L291,718 A2.5,2.5 0 0 1 288.5,715.5 L288.5,637.5 A2.5,2.5 0 0 1 291,635 " fill="none" style="stroke:#000000;stroke-width:1.5;"/><line style="stroke:#000000;stroke-width:1.5;" x1="288.5" x2="582.5" y1="657.2969" y2="657.2969"/><text fill="#000000" font-family="sans-serif" font-size="14" font-weight="bold" lengthAdjust="spacing" textLength="281" x="292.5" y="649.9951">PostgrestPhp\Response\Exceptions</text></g><!--class PostgrestPhp\\Client\\PostgrestAsyncClient--><g id="elem_PostgrestPhp\\Client\\PostgrestAsyncClient"><rect codeLine="15" fill="#F1F1F1" height="32" id="PostgrestPhp\\Client\\PostgrestAsyncClient" rx="2.5" ry="2.5" style="stroke:#181818;stroke-width:0.5;" width="179" x="347" y="148"/><ellipse cx="362" cy="164" fill="#ADD1B2" rx="11" ry="11" style="stroke:#181818;stroke-width:1.0;"/><path d="M364.9688,169.6406 Q364.3906,169.9375 363.75,170.0781 Q363.1094,170.2344 362.4063,170.2344 Q359.9063,170.2344 358.5781,168.5938 Q357.2656,166.9375 357.2656,163.8125 Q357.2656,160.6875 358.5781,159.0313 Q359.9063,157.375 362.4063,157.375 Q363.1094,157.375 363.75,157.5313 Q364.4063,157.6875 364.9688,157.9844 L364.9688,160.7031 Q364.3438,160.125 363.75,159.8594 Q363.1563,159.5781 362.5313,159.5781 Q361.1875,159.5781 360.5,160.6563 Q359.8125,161.7188 359.8125,163.8125 Q359.8125,165.9063 360.5,166.9844 Q361.1875,168.0469 362.5313,168.0469 Q363.1563,168.0469 363.75,167.7813 Q364.3438,167.5 364.9688,166.9219 L364.9688,169.6406 Z " fill="#000000"/><text fill="#000000" font-family="sans-serif" font-size="14" lengthAdjust="spacing" textLength="147" x="376" y="168.8467">PostgrestAsyncClient</text></g><!--class PostgrestPhp\\Client\\PostgrestSyncClient--><g id="elem_PostgrestPhp\\Client\\PostgrestSyncClient"><rect codeLine="18" fill="#F1F1F1" height="32" id="PostgrestPhp\\Client\\PostgrestSyncClient" rx="2.5" ry="2.5" style="stroke:#181818;stroke-width:0.5;" width="171" x="351" y="215"/><ellipse cx="366" cy="231" fill="#ADD1B2" rx="11" ry="11" style="stroke:#181818;stroke-width:1.0;"/><path d="M368.9688,236.6406 Q368.3906,236.9375 367.75,237.0781 Q367.1094,237.2344 366.4063,237.2344 Q363.9063,237.2344 362.5781,235.5938 Q361.2656,233.9375 361.2656,230.8125 Q361.2656,227.6875 362.5781,226.0313 Q363.9063,224.375 366.4063,224.375 Q367.1094,224.375 367.75,224.5313 Q368.4063,224.6875 368.9688,224.9844 L368.9688,227.7031 Q368.3438,227.125 367.75,226.8594 Q367.1563,226.5781 366.5313,226.5781 Q365.1875,226.5781 364.5,227.6563 Q363.8125,228.7188 363.8125,230.8125 Q363.8125,232.9063 364.5,233.9844 Q365.1875,235.0469 366.5313,235.0469 Q367.1563,235.0469 367.75,234.7813 Q368.3438,234.5 368.9688,233.9219 L368.9688,236.6406 Z " fill="#000000"/><text fill="#000000" font-family="sans-serif" font-size="14" lengthAdjust="spacing" textLength="139" x="380" y="235.8467">PostgrestSyncClient</text></g><!--class PostgrestPhp\\Client\\Base\\PostgrestBaseClient--><g id="elem_PostgrestPhp\\Client\\Base\\PostgrestBaseClient"><rect codeLine="24" fill="#F1F1F1" height="32" id="PostgrestPhp\\Client\\Base\\PostgrestBaseClient" rx="2.5" ry="2.5" style="stroke:#181818;stroke-width:0.5;" width="173" x="36.5" y="148"/><ellipse cx="51.5" cy="164" fill="#A9DCDF" rx="11" ry="11" style="stroke:#181818;stroke-width:1.0;"/><path d="M51.6094,159.3438 L50.4531,164.4219 L52.7813,164.4219 L51.6094,159.3438 Z M50.125,157.1094 L53.1094,157.1094 L56.4688,169.5 L54.0156,169.5 L53.25,166.4375 L49.9688,166.4375 L49.2188,169.5 L46.7813,169.5 L50.125,157.1094 Z " fill="#000000"/><text fill="#000000" font-family="sans-serif" font-size="14" font-style="italic" lengthAdjust="spacing" textLength="141" x="65.5" y="168.8467">PostgrestBaseClient</text></g><!--class PostgrestPhp\\Client\\Base\\PostgrestClientInterface--><g id="elem_PostgrestPhp\\Client\\Base\\PostgrestClientInterface"><rect codeLine="27" fill="#F1F1F1" height="32" id="PostgrestPhp\\Client\\Base\\PostgrestClientInterface" rx="2.5" ry="2.5" style="stroke:#181818;stroke-width:0.5;" width="198" x="24" y="215"/><ellipse cx="39" cy="231" fill="#B4A7E5" rx="11" ry="11" style="stroke:#181818;stroke-width:1.0;"/><path d="M34.9219,226.7656 L34.9219,224.6094 L42.3125,224.6094 L42.3125,226.7656 L39.8438,226.7656 L39.8438,234.8438 L42.3125,234.8438 L42.3125,237 L34.9219,237 L34.9219,234.8438 L37.3906,234.8438 L37.3906,226.7656 L34.9219,226.7656 Z " fill="#000000"/><text fill="#000000" font-family="sans-serif" font-size="14" font-style="italic" lengthAdjust="spacing" textLength="166" x="53" y="235.8467">PostgrestClientInterface</text></g><!--class PostgrestPhp\\Client\\Base\\ClientAuthConfig--><g id="elem_PostgrestPhp\\Client\\Base\\ClientAuthConfig"><rect codeLine="21" fill="#F1F1F1" height="32" id="PostgrestPhp\\Client\\Base\\ClientAuthConfig" rx="2.5" ry="2.5" style="stroke:#181818;stroke-width:0.5;" width="147" x="49.5" y="282"/><ellipse cx="64.5" cy="298" fill="#ADD1B2" rx="11" ry="11" style="stroke:#181818;stroke-width:1.0;"/><path d="M67.4688,303.6406 Q66.8906,303.9375 66.25,304.0781 Q65.6094,304.2344 64.9063,304.2344 Q62.4063,304.2344 61.0781,302.5938 Q59.7656,300.9375 59.7656,297.8125 Q59.7656,294.6875 61.0781,293.0313 Q62.4063,291.375 64.9063,291.375 Q65.6094,291.375 66.25,291.5313 Q66.9063,291.6875 67.4688,291.9844 L67.4688,294.7031 Q66.8438,294.125 66.25,293.8594 Q65.6563,293.5781 65.0313,293.5781 Q63.6875,293.5781 63,294.6563 Q62.3125,295.7188 62.3125,297.8125 Q62.3125,299.9063 63,300.9844 Q63.6875,302.0469 65.0313,302.0469 Q65.6563,302.0469 66.25,301.7813 Q66.8438,301.5 67.4688,300.9219 L67.4688,303.6406 Z " fill="#000000"/><text fill="#000000" font-family="sans-serif" font-size="14" lengthAdjust="spacing" textLength="115" x="78.5" y="302.8467">ClientAuthConfig</text></g><!--class PostgrestPhp\\Client\\Exceptions\\FailedAuthException--><g id="elem_PostgrestPhp\\Client\\Exceptions\\FailedAuthException"><rect codeLine="30" fill="#F1F1F1" height="32" id="PostgrestPhp\\Client\\Exceptions\\FailedAuthException" rx="2.5" ry="2.5" style="stroke:#181818;stroke-width:0.5;" width="172" x="350.5" y="322"/><ellipse cx="365.5" cy="338" fill="#ADD1B2" rx="11" ry="11" style="stroke:#181818;stroke-width:1.0;"/><path d="M368.4688,343.6406 Q367.8906,343.9375 367.25,344.0781 Q366.6094,344.2344 365.9063,344.2344 Q363.4063,344.2344 362.0781,342.5938 Q360.7656,340.9375 360.7656,337.8125 Q360.7656,334.6875 362.0781,333.0313 Q363.4063,331.375 365.9063,331.375 Q366.6094,331.375 367.25,331.5313 Q367.9063,331.6875 368.4688,331.9844 L368.4688,334.7031 Q367.8438,334.125 367.25,333.8594 Q366.6563,333.5781 366.0313,333.5781 Q364.6875,333.5781 364,334.6563 Q363.3125,335.7188 363.3125,337.8125 Q363.3125,339.9063 364,340.9844 Q364.6875,342.0469 366.0313,342.0469 Q366.6563,342.0469 367.25,341.7813 Q367.8438,341.5 368.4688,340.9219 L368.4688,343.6406 Z " fill="#000000"/><text fill="#000000" font-family="sans-serif" font-size="14" lengthAdjust="spacing" textLength="140" x="379.5" y="342.8467">FailedAuthException</text></g><!--class PostgrestPhp\\RequestBuilder\\Helper--><g id="elem_PostgrestPhp\\RequestBuilder\\Helper"><rect codeLine="33" fill="#F1F1F1" height="32" id="PostgrestPhp\\RequestBuilder\\Helper" rx="2.5" ry="2.5" style="stroke:#181818;stroke-width:0.5;" width="77" x="398" y="1117"/><ellipse cx="413" cy="1133" fill="#ADD1B2" rx="11" ry="11" style="stroke:#181818;stroke-width:1.0;"/><path d="M415.9688,1138.6406 Q415.3906,1138.9375 414.75,1139.0781 Q414.1094,1139.2344 413.4063,1139.2344 Q410.9063,1139.2344 409.5781,1137.5938 Q408.2656,1135.9375 408.2656,1132.8125 Q408.2656,1129.6875 409.5781,1128.0313 Q410.9063,1126.375 413.4063,1126.375 Q414.1094,1126.375 414.75,1126.5313 Q415.4063,1126.6875 415.9688,1126.9844 L415.9688,1129.7031 Q415.3438,1129.125 414.75,1128.8594 Q414.1563,1128.5781 413.5313,1128.5781 Q412.1875,1128.5781 411.5,1129.6563 Q410.8125,1130.7188 410.8125,1132.8125 Q410.8125,1134.9063 411.5,1135.9844 Q412.1875,1137.0469 413.5313,1137.0469 Q414.1563,1137.0469 414.75,1136.7813 Q415.3438,1136.5 415.9688,1135.9219 L415.9688,1138.6406 Z " fill="#000000"/><text fill="#000000" font-family="sans-serif" font-size="14" lengthAdjust="spacing" textLength="45" x="427" y="1137.8467">Helper</text></g><!--class PostgrestPhp\\RequestBuilder\\OrderColumn--><g id="elem_PostgrestPhp\\RequestBuilder\\OrderColumn"><rect codeLine="36" fill="#F1F1F1" height="32" id="PostgrestPhp\\RequestBuilder\\OrderColumn" rx="2.5" ry="2.5" style="stroke:#181818;stroke-width:0.5;" width="124" x="374.5" y="1184"/><ellipse cx="389.5" cy="1200" fill="#ADD1B2" rx="11" ry="11" style="stroke:#181818;stroke-width:1.0;"/><path d="M392.4688,1205.6406 Q391.8906,1205.9375 391.25,1206.0781 Q390.6094,1206.2344 389.9063,1206.2344 Q387.4063,1206.2344 386.0781,1204.5938 Q384.7656,1202.9375 384.7656,1199.8125 Q384.7656,1196.6875 386.0781,1195.0313 Q387.4063,1193.375 389.9063,1193.375 Q390.6094,1193.375 391.25,1193.5313 Q391.9063,1193.6875 392.4688,1193.9844 L392.4688,1196.7031 Q391.8438,1196.125 391.25,1195.8594 Q390.6563,1195.5781 390.0313,1195.5781 Q388.6875,1195.5781 388,1196.6563 Q387.3125,1197.7188 387.3125,1199.8125 Q387.3125,1201.9063 388,1202.9844 Q388.6875,1204.0469 390.0313,1204.0469 Q390.6563,1204.0469 391.25,1203.7813 Q391.8438,1203.5 392.4688,1202.9219 L392.4688,1205.6406 Z " fill="#000000"/><text fill="#000000" font-family="sans-serif" font-size="14" lengthAdjust="spacing" textLength="92" x="403.5" y="1204.8467">OrderColumn</text></g><!--class PostgrestPhp\\RequestBuilder\\PostgrestRequestBuilder--><g id="elem_PostgrestPhp\\RequestBuilder\\PostgrestRequestBuilder"><rect codeLine="40" fill="#F1F1F1" height="32" id="PostgrestPhp\\RequestBuilder\\PostgrestRequestBuilder" rx="2.5" ry="2.5" style="stroke:#181818;stroke-width:0.5;" width="206" x="333.5" y="1251"/><ellipse cx="348.5" cy="1267" fill="#ADD1B2" rx="11" ry="11" style="stroke:#181818;stroke-width:1.0;"/><path d="M351.4688,1272.6406 Q350.8906,1272.9375 350.25,1273.0781 Q349.6094,1273.2344 348.9063,1273.2344 Q346.4063,1273.2344 345.0781,1271.5938 Q343.7656,1269.9375 343.7656,1266.8125 Q343.7656,1263.6875 345.0781,1262.0313 Q346.4063,1260.375 348.9063,1260.375 Q349.6094,1260.375 350.25,1260.5313 Q350.9063,1260.6875 351.4688,1260.9844 L351.4688,1263.7031 Q350.8438,1263.125 350.25,1262.8594 Q349.6563,1262.5781 349.0313,1262.5781 Q347.6875,1262.5781 347,1263.6563 Q346.3125,1264.7188 346.3125,1266.8125 Q346.3125,1268.9063 347,1269.9844 Q347.6875,1271.0469 349.0313,1271.0469 Q349.6563,1271.0469 350.25,1270.7813 Q350.8438,1270.5 351.4688,1269.9219 L351.4688,1272.6406 Z " fill="#000000"/><text fill="#000000" font-family="sans-serif" font-size="14" lengthAdjust="spacing" textLength="174" x="362.5" y="1271.8467">PostgrestRequestBuilder</text></g><!--class PostgrestPhp\\RequestBuilder\\Traits\\FilterOperators--><g id="elem_PostgrestPhp\\RequestBuilder\\Traits\\FilterOperators"><rect codeLine="58" fill="#F1F1F1" height="40.2656" id="PostgrestPhp\\RequestBuilder\\Traits\\FilterOperators" rx="2.5" ry="2.5" style="stroke:#181818;stroke-width:0.5;" width="134" x="56" y="1002"/><ellipse cx="71" cy="1022.1328" fill="#FF7700" rx="11" ry="11" style="stroke:#181818;stroke-width:1.0;"/><path d="M71.8438,1028.8828 L69.3906,1028.8828 L69.3906,1018.6328 L66.25,1018.6328 L66.25,1016.4922 L74.9844,1016.4922 L74.9844,1018.6328 L71.8438,1018.6328 L71.8438,1028.8828 Z " fill="#000000"/><text fill="#000000" font-family="sans-serif" font-size="12" font-style="italic" lengthAdjust="spacing" textLength="42" x="115" y="1018.1387">«Trait»</text><text fill="#000000" font-family="sans-serif" font-size="14" lengthAdjust="spacing" textLength="102" x="85" y="1033.9639">FilterOperators</text></g><!--class PostgrestPhp\\RequestBuilder\\Traits\\ArrayRangeOperators--><g id="elem_PostgrestPhp\\RequestBuilder\\Traits\\ArrayRangeOperators"><rect codeLine="52" fill="#F1F1F1" height="40.2656" id="PostgrestPhp\\RequestBuilder\\Traits\\ArrayRangeOperators" rx="2.5" ry="2.5" style="stroke:#181818;stroke-width:0.5;" width="180" x="33" y="927"/><ellipse cx="48" cy="947.1328" fill="#FF7700" rx="11" ry="11" style="stroke:#181818;stroke-width:1.0;"/><path d="M48.8438,953.8828 L46.3906,953.8828 L46.3906,943.6328 L43.25,943.6328 L43.25,941.4922 L51.9844,941.4922 L51.9844,943.6328 L48.8438,943.6328 L48.8438,953.8828 Z " fill="#000000"/><text fill="#000000" font-family="sans-serif" font-size="12" font-style="italic" lengthAdjust="spacing" textLength="42" x="115" y="943.1387">«Trait»</text><text fill="#000000" font-family="sans-serif" font-size="14" lengthAdjust="spacing" textLength="148" x="62" y="958.9639">ArrayRangeOperators</text></g><!--class PostgrestPhp\\RequestBuilder\\Traits\\EqualityOperators--><g id="elem_PostgrestPhp\\RequestBuilder\\Traits\\EqualityOperators"><rect codeLine="55" fill="#F1F1F1" height="40.2656" id="PostgrestPhp\\RequestBuilder\\Traits\\EqualityOperators" rx="2.5" ry="2.5" style="stroke:#181818;stroke-width:0.5;" width="154" x="46" y="852"/><ellipse cx="61" cy="872.1328" fill="#FF7700" rx="11" ry="11" style="stroke:#181818;stroke-width:1.0;"/><path d="M61.8438,878.8828 L59.3906,878.8828 L59.3906,868.6328 L56.25,868.6328 L56.25,866.4922 L64.9844,866.4922 L64.9844,868.6328 L61.8438,868.6328 L61.8438,878.8828 Z " fill="#000000"/><text fill="#000000" font-family="sans-serif" font-size="12" font-style="italic" lengthAdjust="spacing" textLength="42" x="115" y="868.1387">«Trait»</text><text fill="#000000" font-family="sans-serif" font-size="14" lengthAdjust="spacing" textLength="122" x="75" y="883.9639">EqualityOperators</text></g><!--class PostgrestPhp\\RequestBuilder\\Traits\\FullTextSearchOperators--><g id="elem_PostgrestPhp\\RequestBuilder\\Traits\\FullTextSearchOperators"><rect codeLine="61" fill="#F1F1F1" height="40.2656" id="PostgrestPhp\\RequestBuilder\\Traits\\FullTextSearchOperators" rx="2.5" ry="2.5" style="stroke:#181818;stroke-width:0.5;" width="202" x="22" y="777"/><ellipse cx="37" cy="797.1328" fill="#FF7700" rx="11" ry="11" style="stroke:#181818;stroke-width:1.0;"/><path d="M37.8438,803.8828 L35.3906,803.8828 L35.3906,793.6328 L32.25,793.6328 L32.25,791.4922 L40.9844,791.4922 L40.9844,793.6328 L37.8438,793.6328 L37.8438,803.8828 Z " fill="#000000"/><text fill="#000000" font-family="sans-serif" font-size="12" font-style="italic" lengthAdjust="spacing" textLength="42" x="115" y="793.1387">«Trait»</text><text fill="#000000" font-family="sans-serif" font-size="14" lengthAdjust="spacing" textLength="170" x="51" y="808.9639">FullTextSearchOperators</text></g><!--class PostgrestPhp\\RequestBuilder\\Traits\\GreaterLessOperators--><g id="elem_PostgrestPhp\\RequestBuilder\\Traits\\GreaterLessOperators"><rect codeLine="64" fill="#F1F1F1" height="40.2656" id="PostgrestPhp\\RequestBuilder\\Traits\\GreaterLessOperators" rx="2.5" ry="2.5" style="stroke:#181818;stroke-width:0.5;" width="185" x="344" y="927"/><ellipse cx="359" cy="947.1328" fill="#FF7700" rx="11" ry="11" style="stroke:#181818;stroke-width:1.0;"/><path d="M359.8438,953.8828 L357.3906,953.8828 L357.3906,943.6328 L354.25,943.6328 L354.25,941.4922 L362.9844,941.4922 L362.9844,943.6328 L359.8438,943.6328 L359.8438,953.8828 Z " fill="#000000"/><text fill="#000000" font-family="sans-serif" font-size="12" font-style="italic" lengthAdjust="spacing" textLength="42" x="428.5" y="943.1387">«Trait»</text><text fill="#000000" font-family="sans-serif" font-size="14" lengthAdjust="spacing" textLength="153" x="373" y="958.9639">GreaterLessOperators</text></g><!--class PostgrestPhp\\RequestBuilder\\Traits\\ModifierOperators--><g id="elem_PostgrestPhp\\RequestBuilder\\Traits\\ModifierOperators"><rect codeLine="67" fill="#F1F1F1" height="40.2656" id="PostgrestPhp\\RequestBuilder\\Traits\\ModifierOperators" rx="2.5" ry="2.5" style="stroke:#181818;stroke-width:0.5;" width="155" x="359" y="852"/><ellipse cx="374" cy="872.1328" fill="#FF7700" rx="11" ry="11" style="stroke:#181818;stroke-width:1.0;"/><path d="M374.8438,878.8828 L372.3906,878.8828 L372.3906,868.6328 L369.25,868.6328 L369.25,866.4922 L377.9844,866.4922 L377.9844,868.6328 L374.8438,868.6328 L374.8438,878.8828 Z " fill="#000000"/><text fill="#000000" font-family="sans-serif" font-size="12" font-style="italic" lengthAdjust="spacing" textLength="42" x="428.5" y="868.1387">«Trait»</text><text fill="#000000" font-family="sans-serif" font-size="14" lengthAdjust="spacing" textLength="123" x="388" y="883.9639">ModifierOperators</text></g><!--class PostgrestPhp\\RequestBuilder\\Traits\\PatternMatchingOperators--><g id="elem_PostgrestPhp\\RequestBuilder\\Traits\\PatternMatchingOperators"><rect codeLine="70" fill="#F1F1F1" height="40.2656" id="PostgrestPhp\\RequestBuilder\\Traits\\PatternMatchingOperators" rx="2.5" ry="2.5" style="stroke:#181818;stroke-width:0.5;" width="214" x="329.5" y="777"/><ellipse cx="344.5" cy="797.1328" fill="#FF7700" rx="11" ry="11" style="stroke:#181818;stroke-width:1.0;"/><path d="M345.3438,803.8828 L342.8906,803.8828 L342.8906,793.6328 L339.75,793.6328 L339.75,791.4922 L348.4844,791.4922 L348.4844,793.6328 L345.3438,793.6328 L345.3438,803.8828 Z " fill="#000000"/><text fill="#000000" font-family="sans-serif" font-size="12" font-style="italic" lengthAdjust="spacing" textLength="42" x="428.5" y="793.1387">«Trait»</text><text fill="#000000" font-family="sans-serif" font-size="14" lengthAdjust="spacing" textLength="182" x="358.5" y="808.9639">PatternMatchingOperators</text></g><!--class PostgrestPhp\\RequestBuilder\\Exceptions\\DataEncodingException--><g id="elem_PostgrestPhp\\RequestBuilder\\Exceptions\\DataEncodingException"><rect codeLine="43" fill="#F1F1F1" height="32" id="PostgrestPhp\\RequestBuilder\\Exceptions\\DataEncodingException" rx="2.5" ry="2.5" style="stroke:#181818;stroke-width:0.5;" width="197" x="338" y="429"/><ellipse cx="353" cy="445" fill="#ADD1B2" rx="11" ry="11" style="stroke:#181818;stroke-width:1.0;"/><path d="M355.9688,450.6406 Q355.3906,450.9375 354.75,451.0781 Q354.1094,451.2344 353.4063,451.2344 Q350.9063,451.2344 349.5781,449.5938 Q348.2656,447.9375 348.2656,444.8125 Q348.2656,441.6875 349.5781,440.0313 Q350.9063,438.375 353.4063,438.375 Q354.1094,438.375 354.75,438.5313 Q355.4063,438.6875 355.9688,438.9844 L355.9688,441.7031 Q355.3438,441.125 354.75,440.8594 Q354.1563,440.5781 353.5313,440.5781 Q352.1875,440.5781 351.5,441.6563 Q350.8125,442.7188 350.8125,444.8125 Q350.8125,446.9063 351.5,447.9844 Q352.1875,449.0469 353.5313,449.0469 Q354.1563,449.0469 354.75,448.7813 Q355.3438,448.5 355.9688,447.9219 L355.9688,450.6406 Z " fill="#000000"/><text fill="#000000" font-family="sans-serif" font-size="14" lengthAdjust="spacing" textLength="165" x="367" y="449.8467">DataEncodingException</text></g><!--class PostgrestPhp\\RequestBuilder\\Exceptions\\FilterLogicException--><g id="elem_PostgrestPhp\\RequestBuilder\\Exceptions\\FilterLogicException"><rect codeLine="46" fill="#F1F1F1" height="32" id="PostgrestPhp\\RequestBuilder\\Exceptions\\FilterLogicException" rx="2.5" ry="2.5" style="stroke:#181818;stroke-width:0.5;" width="169" x="352" y="496"/><ellipse cx="367" cy="512" fill="#ADD1B2" rx="11" ry="11" style="stroke:#181818;stroke-width:1.0;"/><path d="M369.9688,517.6406 Q369.3906,517.9375 368.75,518.0781 Q368.1094,518.2344 367.4063,518.2344 Q364.9063,518.2344 363.5781,516.5938 Q362.2656,514.9375 362.2656,511.8125 Q362.2656,508.6875 363.5781,507.0313 Q364.9063,505.375 367.4063,505.375 Q368.1094,505.375 368.75,505.5313 Q369.4063,505.6875 369.9688,505.9844 L369.9688,508.7031 Q369.3438,508.125 368.75,507.8594 Q368.1563,507.5781 367.5313,507.5781 Q366.1875,507.5781 365.5,508.6563 Q364.8125,509.7188 364.8125,511.8125 Q364.8125,513.9063 365.5,514.9844 Q366.1875,516.0469 367.5313,516.0469 Q368.1563,516.0469 368.75,515.7813 Q369.3438,515.5 369.9688,514.9219 L369.9688,517.6406 Z " fill="#000000"/><text fill="#000000" font-family="sans-serif" font-size="14" lengthAdjust="spacing" textLength="137" x="381" y="516.8467">FilterLogicException</text></g><!--class PostgrestPhp\\RequestBuilder\\Exceptions\\NotUnifiedValuesException--><g id="elem_PostgrestPhp\\RequestBuilder\\Exceptions\\NotUnifiedValuesException"><rect codeLine="49" fill="#F1F1F1" height="32" id="PostgrestPhp\\RequestBuilder\\Exceptions\\NotUnifiedValuesException" rx="2.5" ry="2.5" style="stroke:#181818;stroke-width:0.5;" width="217" x="328" y="563"/><ellipse cx="343" cy="579" fill="#ADD1B2" rx="11" ry="11" style="stroke:#181818;stroke-width:1.0;"/><path d="M345.9688,584.6406 Q345.3906,584.9375 344.75,585.0781 Q344.1094,585.2344 343.4063,585.2344 Q340.9063,585.2344 339.5781,583.5938 Q338.2656,581.9375 338.2656,578.8125 Q338.2656,575.6875 339.5781,574.0313 Q340.9063,572.375 343.4063,572.375 Q344.1094,572.375 344.75,572.5313 Q345.4063,572.6875 345.9688,572.9844 L345.9688,575.7031 Q345.3438,575.125 344.75,574.8594 Q344.1563,574.5781 343.5313,574.5781 Q342.1875,574.5781 341.5,575.6563 Q340.8125,576.7188 340.8125,578.8125 Q340.8125,580.9063 341.5,581.9844 Q342.1875,583.0469 343.5313,583.0469 Q344.1563,583.0469 344.75,582.7813 Q345.3438,582.5 345.9688,581.9219 L345.9688,584.6406 Z " fill="#000000"/><text fill="#000000" font-family="sans-serif" font-size="14" lengthAdjust="spacing" textLength="185" x="357" y="583.8467">NotUnifiedValuesException</text></g><!--class PostgrestPhp\\Response\\PostgrestResponse--><g id="elem_PostgrestPhp\\Response\\PostgrestResponse"><rect codeLine="73" fill="#F1F1F1" height="32" id="PostgrestPhp\\Response\\PostgrestResponse" rx="2.5" ry="2.5" style="stroke:#181818;stroke-width:0.5;" width="170" x="38" y="41"/><ellipse cx="53" cy="57" fill="#ADD1B2" rx="11" ry="11" style="stroke:#181818;stroke-width:1.0;"/><path d="M55.9688,62.6406 Q55.3906,62.9375 54.75,63.0781 Q54.1094,63.2344 53.4063,63.2344 Q50.9063,63.2344 49.5781,61.5938 Q48.2656,59.9375 48.2656,56.8125 Q48.2656,53.6875 49.5781,52.0313 Q50.9063,50.375 53.4063,50.375 Q54.1094,50.375 54.75,50.5313 Q55.4063,50.6875 55.9688,50.9844 L55.9688,53.7031 Q55.3438,53.125 54.75,52.8594 Q54.1563,52.5781 53.5313,52.5781 Q52.1875,52.5781 51.5,53.6563 Q50.8125,54.7188 50.8125,56.8125 Q50.8125,58.9063 51.5,59.9844 Q52.1875,61.0469 53.5313,61.0469 Q54.1563,61.0469 54.75,60.7813 Q55.3438,60.5 55.9688,59.9219 L55.9688,62.6406 Z " fill="#000000"/><text fill="#000000" font-family="sans-serif" font-size="14" lengthAdjust="spacing" textLength="138" x="67" y="61.8467">PostgrestResponse</text></g><!--class PostgrestPhp\\Response\\Exceptions\\PostgrestErrorException--><g id="elem_PostgrestPhp\\Response\\Exceptions\\PostgrestErrorException"><rect codeLine="76" fill="#F1F1F1" height="32" id="PostgrestPhp\\Response\\Exceptions\\PostgrestErrorException" rx="2.5" ry="2.5" style="stroke:#181818;stroke-width:0.5;" width="200" x="336.5" y="670"/><ellipse cx="351.5" cy="686" fill="#ADD1B2" rx="11" ry="11" style="stroke:#181818;stroke-width:1.0;"/><path d="M354.4688,691.6406 Q353.8906,691.9375 353.25,692.0781 Q352.6094,692.2344 351.9063,692.2344 Q349.4063,692.2344 348.0781,690.5938 Q346.7656,688.9375 346.7656,685.8125 Q346.7656,682.6875 348.0781,681.0313 Q349.4063,679.375 351.9063,679.375 Q352.6094,679.375 353.25,679.5313 Q353.9063,679.6875 354.4688,679.9844 L354.4688,682.7031 Q353.8438,682.125 353.25,681.8594 Q352.6563,681.5781 352.0313,681.5781 Q350.6875,681.5781 350,682.6563 Q349.3125,683.7188 349.3125,685.8125 Q349.3125,687.9063 350,688.9844 Q350.6875,690.0469 352.0313,690.0469 Q352.6563,690.0469 353.25,689.7813 Q353.8438,689.5 354.4688,688.9219 L354.4688,691.6406 Z " fill="#000000"/><text fill="#000000" font-family="sans-serif" font-size="14" lengthAdjust="spacing" textLength="168" x="365.5" y="690.8467">PostgrestErrorException</text></g><!--class Exception--><g id="elem_Exception"><rect fill="#F1F1F1" height="32" id="Exception" rx="2.5" ry="2.5" style="stroke:#181818;stroke-width:0.5;" width="100" x="73" y="496"/><ellipse cx="88" cy="512" fill="#ADD1B2" rx="11" ry="11" style="stroke:#181818;stroke-width:1.0;"/><path d="M90.9688,517.6406 Q90.3906,517.9375 89.75,518.0781 Q89.1094,518.2344 88.4063,518.2344 Q85.9063,518.2344 84.5781,516.5938 Q83.2656,514.9375 83.2656,511.8125 Q83.2656,508.6875 84.5781,507.0313 Q85.9063,505.375 88.4063,505.375 Q89.1094,505.375 89.75,505.5313 Q90.4063,505.6875 90.9688,505.9844 L90.9688,508.7031 Q90.3438,508.125 89.75,507.8594 Q89.1563,507.5781 88.5313,507.5781 Q87.1875,507.5781 86.5,508.6563 Q85.8125,509.7188 85.8125,511.8125 Q85.8125,513.9063 86.5,514.9844 Q87.1875,516.0469 88.5313,516.0469 Q89.1563,516.0469 89.75,515.7813 Q90.3438,515.5 90.9688,514.9219 L90.9688,517.6406 Z " fill="#000000"/><text fill="#000000" font-family="sans-serif" font-size="14" lengthAdjust="spacing" textLength="68" x="102" y="516.8467">Exception</text></g><!--reverse link PostgrestPhp\\Client\\Base\\PostgrestBaseClient to PostgrestPhp\\Client\\PostgrestAsyncClient--><g id="link_PostgrestPhp\\Client\\Base\\PostgrestBaseClient_PostgrestPhp\\Client\\PostgrestAsyncClient"><path d="M229.91,156 C229.91,156 346.96,156 346.96,156 " fill="none" id="PostgrestPhp\\Client\\Base\\PostgrestBaseClient-backto-PostgrestPhp\\Client\\PostgrestAsyncClient" style="stroke:#516F42;stroke-width:1.0;"/><polygon fill="none" points="229.91,163,209.91,156,229.91,149,229.91,163" style="stroke:#516F42;stroke-width:1.0;"/></g><!--reverse link PostgrestPhp\\Client\\Base\\PostgrestClientInterface to PostgrestPhp\\Client\\PostgrestAsyncClient--><g id="link_PostgrestPhp\\Client\\Base\\PostgrestClientInterface_PostgrestPhp\\Client\\PostgrestAsyncClient"><path d="M216,194.88 C216,194.88 216,172 216,172 C216,172 285.77,172 346.81,172 " fill="none" id="PostgrestPhp\\Client\\Base\\PostgrestClientInterface-backto-PostgrestPhp\\Client\\PostgrestAsyncClient" style="stroke:#516F42;stroke-width:1.0;stroke-dasharray:7.0,7.0;"/><polygon fill="none" points="223,194.88,216,214.88,209,194.88,223,194.88" style="stroke:#516F42;stroke-width:1.0;"/></g><!--reverse link PostgrestPhp\\Client\\Base\\PostgrestBaseClient to PostgrestPhp\\Client\\PostgrestSyncClient--><g id="link_PostgrestPhp\\Client\\Base\\PostgrestBaseClient_PostgrestPhp\\Client\\PostgrestSyncClient"><path d="M229.63,164 C229.63,164 343,164 343,164 C343,164 343,225.67 343,225.67 C343,225.67 346.02,225.67 350.97,225.67 " fill="none" id="PostgrestPhp\\Client\\Base\\PostgrestBaseClient-backto-PostgrestPhp\\Client\\PostgrestSyncClient" style="stroke:#516F42;stroke-width:1.0;"/><polygon fill="none" points="229.63,171,209.63,164,229.63,157,229.63,171" style="stroke:#516F42;stroke-width:1.0;"/></g><!--reverse link PostgrestPhp\\Client\\Base\\PostgrestClientInterface to PostgrestPhp\\Client\\PostgrestSyncClient--><g id="link_PostgrestPhp\\Client\\Base\\PostgrestClientInterface_PostgrestPhp\\Client\\PostgrestSyncClient"><path d="M242.19,236.33 C242.19,236.33 350.89,236.33 350.89,236.33 " fill="none" id="PostgrestPhp\\Client\\Base\\PostgrestClientInterface-backto-PostgrestPhp\\Client\\PostgrestSyncClient" style="stroke:#516F42;stroke-width:1.0;stroke-dasharray:7.0,7.0;"/><polygon fill="none" points="242.19,243.33,222.19,236.33,242.19,229.33,242.19,243.33" style="stroke:#516F42;stroke-width:1.0;"/></g><!--reverse link Exception to PostgrestPhp\\Client\\Exceptions\\FailedAuthException--><g id="link_Exception_PostgrestPhp\\Client\\Exceptions\\FailedAuthException"><path d="M123,475.94 C123,475.94 123,338 123,338 C123,338 257.61,338 350.42,338 " fill="none" id="Exception-backto-PostgrestPhp\\Client\\Exceptions\\FailedAuthException" style="stroke:#516F42;stroke-width:1.0;"/><polygon fill="none" points="130,475.94,123,495.94,116,475.94,130,475.94" style="stroke:#516F42;stroke-width:1.0;"/></g><!--reverse link PostgrestPhp\\RequestBuilder\\Traits\\FilterOperators to PostgrestPhp\\RequestBuilder\\PostgrestRequestBuilder--><g id="link_PostgrestPhp\\RequestBuilder\\Traits\\FilterOperators_PostgrestPhp\\RequestBuilder\\PostgrestRequestBuilder"><path codeLine="38" d="M195.16,1022 C195.16,1022 339,1022 339,1022 C339,1022 339,1196.42 339,1250.92 " fill="none" id="PostgrestPhp\\RequestBuilder\\Traits\\FilterOperators-backto-PostgrestPhp\\RequestBuilder\\PostgrestRequestBuilder" style="stroke:#516F42;stroke-width:1.0;"/><polygon fill="#516F42" points="190.16,1022,199.16,1026,195.16,1022,199.16,1018,190.16,1022" style="stroke:#516F42;stroke-width:1.0;"/><text fill="#000000" font-family="sans-serif" font-size="13" lengthAdjust="spacing" textLength="30" x="308" y="1077.6069">uses</text></g><!--reverse link Exception to PostgrestPhp\\RequestBuilder\\Exceptions\\DataEncodingException--><g id="link_Exception_PostgrestPhp\\RequestBuilder\\Exceptions\\DataEncodingException"><path d="M193.1,504 C193.1,504 345,504 345,504 C345,504 345,478.59 345,461.12 " fill="none" id="Exception-backto-PostgrestPhp\\RequestBuilder\\Exceptions\\DataEncodingException" style="stroke:#516F42;stroke-width:1.0;"/><polygon fill="none" points="193.1,511,173.1,504,193.1,497,193.1,511" style="stroke:#516F42;stroke-width:1.0;"/></g><!--reverse link Exception to PostgrestPhp\\RequestBuilder\\Exceptions\\FilterLogicException--><g id="link_Exception_PostgrestPhp\\RequestBuilder\\Exceptions\\FilterLogicException"><path d="M193.02,512 C193.02,512 351.82,512 351.82,512 " fill="none" id="Exception-backto-PostgrestPhp\\RequestBuilder\\Exceptions\\FilterLogicException" style="stroke:#516F42;stroke-width:1.0;"/><polygon fill="none" points="193.02,519,173.02,512,193.02,505,193.02,519" style="stroke:#516F42;stroke-width:1.0;"/></g><!--reverse link Exception to PostgrestPhp\\RequestBuilder\\Exceptions\\NotUnifiedValuesException--><g id="link_Exception_PostgrestPhp\\RequestBuilder\\Exceptions\\NotUnifiedValuesException"><path d="M193.03,520 C193.03,520 333,520 333,520 C333,520 333,545.41 333,562.88 " fill="none" id="Exception-backto-PostgrestPhp\\RequestBuilder\\Exceptions\\NotUnifiedValuesException" style="stroke:#516F42;stroke-width:1.0;"/><polygon fill="none" points="193.03,527,173.03,520,193.03,513,193.03,527" style="stroke:#516F42;stroke-width:1.0;"/></g><!--reverse link Exception to PostgrestPhp\\Response\\Exceptions\\PostgrestErrorException--><g id="link_Exception_PostgrestPhp\\Response\\Exceptions\\PostgrestErrorException"><path d="M123,548.06 C123,548.06 123,686 123,686 C123,686 244.7,686 336.44,686 " fill="none" id="Exception-backto-PostgrestPhp\\Response\\Exceptions\\PostgrestErrorException" style="stroke:#516F42;stroke-width:1.0;"/><polygon fill="none" points="116,548.06,123,528.06,130,548.06,116,548.06" style="stroke:#516F42;stroke-width:1.0;"/></g><!--SRC=[rLPHJzj037w_Ns69bqqQ4fks8Kq8gPHscpH6HRizvSNSESc9orsuSmRLjF_EfIabrUWQe7bOdXBxy-VFPpi908GhRKlqMC30UtSpTCPvsFlmzcFw_fs0jXybwr-QvoVEA_9TW2YlCkyggvRWT74z3ZxLM3YhEfFVuxla23agTwDj1YcQG49iTZruZBR4yvB0USwToBKYeABaEHHKN98Fmb3Am0wypd86fJr5RSwAG0mM2mebIffIJSTHMf888QJ14EBjn0NEF0MUv6MI38qcooth8CojRAn0jqnMRGuwmK0jN_suZDH5QQY8Tvs36_DNo-JJA1v-Yp-TDK__6yaDG_Cqg3WVEflgh8d4oy0-3XbqeNYiWWMBNidfhuhHhQIo7hYG96FKXbHToyhQQiA3xH-q5tHTrPLKsiGDJ98lP4hoJuauNwvkLJI9jk5d7ZNNuhM9PP_7RFMU13ZQtz-QQ-LTTy0dg0A5heetiJoXw7ONJf5nPALJyNsoipwijNbnKjzSfcKl_DyT_x0wrQH-eecedIMvRtNynk3y0cr6hNOVmQlPcxtn-F3muE0rBA1mVFmS-j5rXIP-77eX_sjCTqXT6JEBHpmbz3Bl9SLdJrZF3eNG2_zPdFeuEFsSpmGvQhTdo3AFk_N27A6Cmqvhsz-OkeMr5sQ56SMV9xzzNUu0]--></g></svg>